{
  "accessors": [
    {
      "bufferView": 0,
      "componentType": 5125,
      "count": 384,
      "type": "SCALAR"
    },
    {
      "bufferView": 1,
      "componentType": 5126,
      "count": 81,
      "max": [
        3.39342260360718,
        3.39342260360718,
        5.96046447753906e-08
      ],
      "min": [
        -3.39342260360718,
        -3.39342284202576,
        -5.96046447753906e-08
      ],
      "type": "VEC3"
    },
    {
      "bufferView": 2,
      "componentType": 5126,
      "count": 81,
      "type": "VEC3"
    },
    {
      "bufferView": 3,
      "componentType": 5126,
      "count": 81,
      "type": "VEC2"
    },
    {
      "bufferView": 4,
      "componentType": 5125,
      "count": 29808,
      "type": "SCALAR"
    },
    {
      "bufferView": 5,
      "componentType": 5126,
      "count": 7078,
      "max": [
        1.28013098239899,
        2.80473923683167,
        0.89362096786499
      ],
      "min": [
        -1.28013122081757,
        -1.69231200218201,
        -0.49103507399559
      ],
      "type": "VEC3"
    },
    {
      "bufferView": 6,
      "componentType": 5126,
      "count": 7078,
      "type": "VEC3"
    },
    {
      "bufferView": 7,
      "componentType": 5126,
      "count": 7078,
      "type": "VEC2"
    },
    {
      "bufferView": 8,
      "componentType": 5125,
      "count": 13776,
      "type": "SCALAR"
    },
    {
      "bufferView": 9,
      "componentType": 5126,
      "count": 3230,
      "max": [
        0.384463101625443,
        3.11049556732178,
        0.328910708427429
      ],
      "min": [
        -0.534564197063446,
        -0.389416933059692,
        -2.51795315742493
      ],
      "type": "VEC3"
    },
    {
      "bufferView": 10,
      "componentType": 5126,
      "count": 3230,
      "type": "VEC3"
    },
    {
      "bufferView": 11,
      "componentType": 5126,
      "count": 3230,
      "type": "VEC2"
    },
    {
      "bufferView": 12,
      "componentType": 5125,
      "count": 6240,
      "type": "SCALAR"
    },
    {
      "bufferView": 13,
      "componentType": 5126,
      "count": 1436,
      "max": [
        0.884346067905426,
        1.8366277217865,
        0.831043839454651
      ],
      "min": [
        -0.884346067905426,
        0.0301194787025452,
        0.406230747699738
      ],
      "type": "VEC3"
    },
    {
      "bufferView": 14,
      "componentType": 5126,
      "count": 1436,
      "type": "VEC3"
    },
    {
      "bufferView": 15,
      "componentType": 5126,
      "count": 1436,
      "type": "VEC2"
    },
    {
      "bufferView": 16,
      "componentType": 5125,
      "count": 2112,
      "type": "SCALAR"
    },
    {
      "bufferView": 17,
      "componentType": 5126,
      "count": 658,
      "max": [
        1.00156211853027,
        2.75542807579041,
        0.239524573087692
      ],
      "min": [
        -1.00156199932098,
        1.91407108306885,
        -0.481486350297928
      ],
      "type": "VEC3"
    },
    {
      "bufferView": 18,
      "componentType": 5126,
      "count": 658,
      "type": "VEC3"
    },
    {
      "bufferView": 19,
      "componentType": 5126,
      "count": 658,
      "type": "VEC2"
    }
  ],
  "asset": {
    "generator": "Adobe Substance 3D Painter 7.4.3",
    "version": "2.0"
  },
  "bufferViews": [
    {
      "buffer": 0,
      "byteLength": 1536,
      "target": 34963
    },
    {
      "buffer": 0,
      "byteLength": 972,
      "byteOffset": 1536,
      "target": 34962
    },
    {
      "buffer": 0,
      "byteLength": 972,
      "byteOffset": 2508,
      "target": 34962
    },
    {
      "buffer": 0,
      "byteLength": 648,
      "byteOffset": 3480,
      "target": 34962
    },
    {
      "buffer": 0,
      "byteLength": 119232,
      "byteOffset": 4128,
      "target": 34963
    },
    {
      "buffer": 0,
      "byteLength": 84936,
      "byteOffset": 123360,
      "target": 34962
    },
    {
      "buffer": 0,
      "byteLength": 84936,
      "byteOffset": 208296,
      "target": 34962
    },
    {
      "buffer": 0,
      "byteLength": 56624,
      "byteOffset": 293232,
      "target": 34962
    },
    {
      "buffer": 0,
      "byteLength": 55104,
      "byteOffset": 349856,
      "target": 34963
    },
    {
      "buffer": 0,
      "byteLength": 38760,
      "byteOffset": 404960,
      "target": 34962
    },
    {
      "buffer": 0,
      "byteLength": 38760,
      "byteOffset": 443720,
      "target": 34962
    },
    {
      "buffer": 0,
      "byteLength": 25840,
      "byteOffset": 482480,
      "target": 34962
    },
    {
      "buffer": 0,
      "byteLength": 24960,
      "byteOffset": 508320,
      "target": 34963
    },
    {
      "buffer": 0,
      "byteLength": 17232,
      "byteOffset": 533280,
      "target": 34962
    },
    {
      "buffer": 0,
      "byteLength": 17232,
      "byteOffset": 550512,
      "target": 34962
    },
    {
      "buffer": 0,
      "byteLength": 11488,
      "byteOffset": 567744,
      "target": 34962
    },
    {
      "buffer": 0,
      "byteLength": 8448,
      "byteOffset": 579232,
      "target": 34963
    },
    {
      "buffer": 0,
      "byteLength": 7896,
      "byteOffset": 587680,
      "target": 34962
    },
    {
      "buffer": 0,
      "byteLength": 7896,
      "byteOffset": 595576,
      "target": 34962
    },
    {
      "buffer": 0,
      "byteLength": 5264,
      "byteOffset": 603472,
      "target": 34962
    }
  ],
  "buffers": [
    {
      "byteLength": 608736,
      "uri": "MX5.bin"
    }
  ],
  "images": [
    {
      "uri": "Glass_baseColor.png"
    },
    {
      "uri": "Glass_occlusionRoughnessMetallic.png"
    },
    {
      "uri": "Glass_normal.png"
    },
    {
      "uri": "Ground_baseColor.png"
    },
    {
      "uri": "Ground_occlusionRoughnessMetallic.png"
    },
    {
      "uri": "Ground_normal.png"
    },
    {
      "uri": "OtherParts_baseColor.png"
    },
    {
      "uri": "OtherParts_occlusionRoughnessMetallic.png"
    },
    {
      "uri": "OtherParts_normal.png"
    },
    {
      "uri": "Shell_baseColor.png"
    },
    {
      "uri": "Shell_occlusionRoughnessMetallic.png"
    },
    {
      "uri": "Shell_normal.png"
    },
    {
      "uri": "Tires_baseColor.png"
    },
    {
      "uri": "Tires_occlusionRoughnessMetallic.png"
    },
    {
      "uri": "Tires_normal.png"
    }
  ],
  "materials": [
    {
      "alphaMode": "OPAQUE",
      "name": "Glass",
      "normalTexture": {
        "index": 2
      },
      "occlusionTexture": {
        "index": 1
      },
      "pbrMetallicRoughness": {
        "baseColorTexture": {
          "index": 0
        },
        "metallicRoughnessTexture": {
          "index": 1
        }
      }
    },
    {
      "alphaMode": "BLEND",
      "name": "Ground",
      "normalTexture": {
        "index": 5
      },
      "occlusionTexture": {
        "index": 4
      },
      "pbrMetallicRoughness": {
        "baseColorTexture": {
          "index": 3
        },
        "metallicRoughnessTexture": {
          "index": 4
        }
      }
    },
    {
      "alphaMode": "OPAQUE",
      "name": "OtherParts",
      "normalTexture": {
        "index": 8
      },
      "occlusionTexture": {
        "index": 7
      },
      "pbrMetallicRoughness": {
        "baseColorTexture": {
          "index": 6
        },
        "metallicRoughnessTexture": {
          "index": 7
        }
      }
    },
    {
      "alphaMode": "OPAQUE",
      "name": "Shell",
      "normalTexture": {
        "index": 11
      },
      "occlusionTexture": {
        "index": 10
      },
      "pbrMetallicRoughness": {
        "baseColorTexture": {
          "index": 9
        },
        "metallicRoughnessTexture": {
          "index": 10
        }
      }
    },
    {
      "alphaMode": "OPAQUE",
      "name": "Tires",
      "normalTexture": {
        "index": 14
      },
      "occlusionTexture": {
        "index": 13
      },
      "pbrMetallicRoughness": {
        "baseColorTexture": {
          "index": 12
        },
        "metallicRoughnessTexture": {
          "index": 13
        }
      }
    }
  ],
  "meshes": [
    {
      "name": "Plane",
      "primitives": [
        {
          "attributes": {
            "NORMAL": 2,
            "POSITION": 1,
            "TEXCOORD_0": 3
          },
          "indices": 0,
          "material": 1,
          "mode": 4
        }
      ]
    },
    {
      "name": "Cube.016",
      "primitives": [
        {
          "attributes": {
            "NORMAL": 6,
            "POSITION": 5,
            "TEXCOORD_0": 7
          },
          "indices": 4,
          "material": 3,
          "mode": 4
        }
      ]
    },
    {
      "name": "Cylinder.006",
      "primitives": [
        {
          "attributes": {
            "NORMAL": 10,
            "POSITION": 9,
            "TEXCOORD_0": 11
          },
          "indices": 8,
          "material": 4,
          "mode": 4
        }
      ]
    },
    {
      "name": "Cube.017",
      "primitives": [
        {
          "attributes": {
            "NORMAL": 14,
            "POSITION": 13,
            "TEXCOORD_0": 15
          },
          "indices": 12,
          "material": 0,
          "mode": 4
        }
      ]
    },
    {
      "name": "Cube.022",
      "primitives": [
        {
          "attributes": {
            "NORMAL": 18,
            "POSITION": 17,
            "TEXCOORD_0": 19
          },
          "indices": 16,
          "material": 2,
          "mode": 4
        }
      ]
    }
  ],
  "nodes": [
    {
      "children": [
        1,
        3,
        5,
        7,
        9
      ],
      "name": "RootNode"
    },
    {
      "children": [
        2
      ],
      "name": "Plane",
      "rotation": [
        -0.707106828689575,
        0.0,
        0.0,
        0.707106709480286
      ],
      "scale": [
        100.0,
        100.0,
        100.0
      ]
    },
    {
      "mesh": 0,
      "name": "Plane"
    },
    {
      "children": [
        4
      ],
      "name": "Cube.016",
      "rotation": [
        -0.707106828689575,
        0.0,
        0.0,
        0.707106709480286
      ],
      "scale": [
        100.0,
        100.0,
        100.0
      ],
      "translation": [
        1.27634786962517e-14,
        54.9911270141602,
        56.8538017272949
      ]
    },
    {
      "mesh": 1,
      "name": "Cube.016"
    },
    {
      "children": [
        6
      ],
      "name": "Cylinder.006",
      "rotation": [
        0.5,
        -0.500000059604645,
        0.5,
        -0.499999970197678
      ],
      "scale": [
        100.0,
        100.0,
        100.0
      ],
      "translation": [
        109.452117919922,
        38.7426147460938,
        136.61181640625
      ]
    },
    {
      "mesh": 2,
      "name": "Cylinder.006"
    },
    {
      "children": [
        8
      ],
      "name": "Cube.017",
      "rotation": [
        -0.707106828689575,
        0.0,
        0.0,
        0.707106709480286
      ],
      "scale": [
        100.0,
        100.0,
        100.0
      ],
      "translation": [
        1.27634786962517e-14,
        54.9911270141602,
        56.8538017272949
      ]
    },
    {
      "mesh": 3,
      "name": "Cube.017"
    },
    {
      "children": [
        10
      ],
      "name": "Cube.022",
      "rotation": [
        -0.707106828689575,
        0.0,
        0.0,
        0.707106709480286
      ],
      "scale": [
        100.0,
        100.0,
        100.0
      ],
      "translation": [
        1.27634786962517e-14,
        54.9911270141602,
        56.8538017272949
      ]
    },
    {
      "mesh": 4,
      "name": "Cube.022"
    }
  ],
  "samplers": [
    {
      "magFilter": 9729,
      "minFilter": 9985,
      "wrapS": 10497,
      "wrapT": 10497
    }
  ],
  "scene": 0,
  "scenes": [
    {
      "name": "Scene",
      "nodes": [
        0
      ]
    }
  ],
  "textures": [
    {
      "sampler": 0,
      "source": 0
    },
    {
      "sampler": 0,
      "source": 1
    },
    {
      "sampler": 0,
      "source": 2
    },
    {
      "sampler": 0,
      "source": 3
    },
    {
      "sampler": 0,
      "source": 4
    },
    {
      "sampler": 0,
      "source": 5
    },
    {
      "sampler": 0,
      "source": 6
    },
    {
      "sampler": 0,
      "source": 7
    },
    {
      "sampler": 0,
      "source": 8
    },
    {
      "sampler": 0,
      "source": 9
    },
    {
      "sampler": 0,
      "source": 10
    },
    {
      "sampler": 0,
      "source": 11
    },
    {
      "sampler": 0,
      "source": 12
    },
    {
      "sampler": 0,
      "source": 13
    },
    {
      "sampler": 0,
      "source": 14
    }
  ]
}